HIERARCHY
ROOT Hips
{
	OFFSET 0.000000 0.000000 0.000000
	CHANNELS 6 Xposition Yposition Zposition Zrotation Yrotation Xrotation 
	JOINT LHipJoint
	{
		OFFSET 0.000000 0.000000 0.000000
		CHANNELS 3 Zrotation Yrotation Xrotation
		JOINT LeftUpLeg
		{
			OFFSET 1.363060 -1.794630 0.839290
			CHANNELS 3 Zrotation Yrotation Xrotation
			JOINT LeftLeg
			{
				OFFSET 2.448110 -6.726130 0.000000
				CHANNELS 3 Zrotation Yrotation Xrotation
				JOINT LeftFoot
				{
					OFFSET 2.562200 -7.039590 0.000000
					CHANNELS 3 Zrotation Yrotation Xrotation
					JOINT LeftToeBase
					{
						OFFSET 0.157640 -0.433110 2.322550
						CHANNELS 3 Zrotation Yrotation Xrotation
						End Site
						{
							OFFSET 0.000000 0.000000 0.000000
						}
					}
				}
			}
		}
	}
	JOINT RHipJoint
	{
		OFFSET 0.000000 0.000000 0.000000
		CHANNELS 3 Zrotation Yrotation Xrotation
		JOINT RightUpLeg
		{
			OFFSET -1.305520 -1.794630 0.839290
			CHANNELS 3 Zrotation Yrotation Xrotation
			JOINT RightLeg
			{
				OFFSET -2.542530 -6.985550 0.000000
				CHANNELS 3 Zrotation Yrotation Xrotation
				JOINT RightFoot
				{
					OFFSET -2.568260 -7.056230 0.000000
					CHANNELS 3 Zrotation Yrotation Xrotation
					JOINT RightToeBase
					{
						OFFSET -0.164730 -0.452590 2.363150
						CHANNELS 3 Zrotation Yrotation Xrotation
						End Site
						{
							OFFSET 0.000000 0.000000 0.000000
						}
					}
				}
			}
		}
	}
	JOINT LowerBack
	{
		OFFSET 0.000000 0.000000 0.000000
		CHANNELS 3 Zrotation Yrotation Xrotation
		JOINT Spine
		{
			OFFSET 0.028270 2.035590 -0.193380
			CHANNELS 3 Zrotation Yrotation Xrotation
			JOINT Spine1
			{
				OFFSET 0.056720 2.048850 -0.042750
				CHANNELS 3 Zrotation Yrotation Xrotation
				JOINT Neck
				{
					OFFSET 0.000000 0.000000 0.000000
					CHANNELS 3 Zrotation Yrotation Xrotation
					JOINT Neck1
					{
						OFFSET -0.054170 1.746240 0.172020
						CHANNELS 3 Zrotation Yrotation Xrotation
						JOINT Head
						{
							OFFSET 0.104070 1.761360 -0.123970
							CHANNELS 3 Zrotation Yrotation Xrotation
							End Site
							{
								OFFSET 0.000000 0.000000 0.000000
							}
						}
					}
				}
				JOINT LeftShoulder
				{
					OFFSET 0.000000 0.000000 0.000000
					CHANNELS 3 Zrotation Yrotation Xrotation
					JOINT LeftArm
					{
						OFFSET 3.362410 1.200890 -0.311210
						CHANNELS 3 Zrotation Yrotation Xrotation
						JOINT LeftForeArm
						{
							OFFSET 4.983000 -0.000000 -0.000000
							CHANNELS 3 Zrotation Yrotation Xrotation
							JOINT LeftHand
							{
								OFFSET 3.483560 -0.000000 -0.000000
								CHANNELS 3 Zrotation Yrotation Xrotation
								JOINT LeftFingerBase
								{
									OFFSET 0.000000 0.000000 0.000000
									CHANNELS 3 Zrotation Yrotation Xrotation
									JOINT LeftHandIndex1
									{
										OFFSET 0.715260 -0.000000 -0.000000
										CHANNELS 3 Zrotation Yrotation Xrotation
										End Site
										{
											OFFSET 0.000000 0.000000 0.000000
										}
									}
								}
								JOINT LThumb
								{
									OFFSET 0.000000 0.000000 0.000000
									CHANNELS 3 Zrotation Yrotation Xrotation
									End Site
									{
										OFFSET 0.000000 0.000000 0.000000
									}
								}
							}
						}
					}
				}
				JOINT RightShoulder
				{
					OFFSET 0.000000 0.000000 0.000000
					CHANNELS 3 Zrotation Yrotation Xrotation
					JOINT RightArm
					{
						OFFSET -3.136600 1.374050 -0.404650
						CHANNELS 3 Zrotation Yrotation Xrotation
						JOINT RightForeArm
						{
							OFFSET -5.241900 -0.000000 -0.000000
							CHANNELS 3 Zrotation Yrotation Xrotation
							JOINT RightHand
							{
								OFFSET -3.444170 -0.000000 -0.000000
								CHANNELS 3 Zrotation Yrotation Xrotation
								JOINT RightFingerBase
								{
									OFFSET 0.000000 0.000000 0.000000
									CHANNELS 3 Zrotation Yrotation Xrotation
									JOINT RightHandIndex1
									{
										OFFSET -0.622530 -0.000000 -0.000000
										CHANNELS 3 Zrotation Yrotation Xrotation
										End Site
										{
											OFFSET 0.000000 0.000000 0.000000
										}
									}
								}
								JOINT RThumb
								{
									OFFSET 0.000000 0.000000 0.000000
									CHANNELS 3 Zrotation Yrotation Xrotation
									End Site
									{
										OFFSET 0.000000 0.000000 0.000000
									}
								}
							}
						}
					}
				}
			}
		}
	}
}
MOTION
Frames: 10
Frame Time: 0.008333
-10.006605 15.198179 -0.791825 -48.383913 81.023766 -19.666703 -8.248256 -1.631926 -1.708687 -15.231841 -0.162591 -74.052365 -0.651656 4.904094 64.397184 2.580341 8.369850 -21.476639 -2.005600 -0.000000 -4.670800 11.874065 -1.712721 -6.531485 9.958356 -16.103283 -25.374447 0.151026 -4.708964 63.546244 0.644011 10.389691 1.701160 1.393500 0.000000 -83.641300 -2.517552 0.806797 11.067148 -1.338495 1.226474 -1.085667 -5.904714 1.293689 -1.502183 9.090552 -7.786376 -8.019579 -1.913604 -0.106567 -0.582901 0.000000 0.000000 0.000000 -0.000122 15.657949 2.306612 -73.447308 24.879707 7.233944 -179.930133 -87.534827 179.994856 1.898552 1.773024 0.027360 -0.017420 0.178917 -0.000000 0.000000 0.000000 0.000000 0.000000 0.000000 0.000000 4.910742 -0.060192 -0.422728 69.319006 6.834666 11.659144 179.660531 81.401698 179.967850 -4.672743 4.753140 -0.217816 0.085285 -0.507391 -0.000000 0.000000 0.000000 0.000000 0.000000 0.000000 0.000000 
-9.800553 15.161684 -0.791580 -46.607834 80.606818 -18.250024 -8.330514 -1.675470 -1.872374 -14.965075 0.105633 -73.360709 -0.516941 4.979308 65.968193 2.782942 9.255304 -22.896165 -2.450000 -0.000001 -4.283200 11.935657 -1.619825 -6.387507 9.392561 -15.356249 -25.376865 -0.182559 -4.744605 65.135329 0.557412 10.440218 4.018255 1.852100 0.000000 -81.733500 -2.740414 0.843624 11.071913 -1.401594 1.260428 -1.118730 -5.997129 1.325824 -1.617496 9.075822 -7.470567 -7.953832 -2.000880 -0.113942 -0.566445 0.000000 0.000000 0.000000 -0.444551 15.356221 2.319599 -72.962569 23.633774 7.141053 -179.945063 -87.973172 179.993039 2.384614 2.054265 0.040227 -0.028899 0.177446 -0.000000 0.000000 0.000000 0.000000 0.000000 0.000000 0.000000 5.215206 0.272730 -0.353908 69.773464 6.552488 11.535477 179.681286 82.109635 179.971944 -4.080798 4.919505 -0.195846 0.069484 -0.506738 -0.000000 0.000000 0.000000 0.000000 0.000000 0.000000 0.000000 
-9.598655 15.131470 -0.792328 -45.019133 80.255368 -16.988128 -8.414437 -1.711320 -2.035419 -14.780210 0.331840 -72.582892 -0.411776 5.035317 67.307414 2.991954 10.154411 -24.342520 -2.946600 0.000000 -4.551000 11.979444 -1.519753 -6.254556 8.898368 -14.582961 -25.545806 -0.493207 -4.789180 66.806457 0.443494 10.174871 5.983894 2.198200 -0.000000 -79.032000 -2.918996 0.870770 11.091188 -1.455402 1.284212 -1.148953 -6.091636 1.347246 -1.737245 9.025159 -7.126340 -7.866318 -2.099784 -0.122403 -0.545153 0.000000 0.000000 0.000000 -0.944080 14.997025 2.334192 -72.388119 22.209571 7.101786 -179.963936 -88.518779 179.990991 2.902137 2.375658 0.057298 -0.041334 0.175718 -0.000000 0.000000 0.000000 0.000000 0.000000 0.000000 0.000000 5.545850 0.606501 -0.284449 70.244447 6.262984 11.315794 179.710114 82.932304 179.975224 -3.592541 5.083240 -0.177277 0.055465 -0.505336 -0.000000 0.000000 0.000000 0.000000 0.000000 0.000000 0.000000 
-9.400772 15.107592 -0.794588 -43.681504 79.972322 -15.949643 -8.499834 -1.741892 -2.194108 -14.657407 0.518538 -71.722786 -0.332518 5.070849 68.418766 3.199659 11.039368 -25.766035 -3.479700 0.000000 -5.331100 12.008707 -1.416633 -6.140257 8.485159 -13.827106 -25.876681 -0.780950 -4.846744 68.555182 0.307167 9.517873 7.497320 2.362600 -0.000000 -75.719300 -3.031684 0.887459 11.128847 -1.494901 1.297172 -1.174004 -6.186119 1.357356 -1.855747 8.932457 -6.761933 -7.758740 -2.207686 -0.131712 -0.519264 0.000000 0.000000 0.000000 -1.489627 14.590445 2.350756 -71.737692 20.608267 7.121300 -179.987636 -89.183606 179.988710 3.442704 2.732597 0.078970 -0.054544 0.173825 -0.000000 0.000000 0.000000 0.000000 0.000000 0.000000 0.000000 5.889049 0.929444 -0.216832 70.726482 5.970370 11.008447 179.746996 83.881862 179.977556 -3.229537 5.236137 -0.163309 0.043657 -0.502891 0.000000 0.000000 0.000000 0.000000 0.000000 0.000000 0.000000 
-9.206687 15.089860 -0.798859 -42.637514 79.757987 -15.182734 -8.587046 -1.768727 -2.345244 -14.577582 0.671547 -70.786626 -0.275402 5.085942 69.315838 3.397524 11.879486 -27.121316 -4.027800 -0.000001 -6.444901 12.026450 -1.312882 -6.050314 8.158583 -13.127048 -26.363797 -1.048723 -4.920132 70.373187 0.150424 8.414467 8.491235 2.300000 -0.000000 -72.006100 -3.062538 0.893176 11.186966 -1.516165 1.298902 -1.191190 -6.277735 1.355926 -1.964560 8.795095 -6.388129 -7.636305 -2.321059 -0.141509 -0.489995 0.000000 0.000000 0.000000 -2.062903 14.159851 2.369809 -71.032987 18.823990 7.210183 179.982667 -89.982396 179.986205 3.999176 3.120341 0.105644 -0.068373 0.171918 -0.000000 0.000000 0.000000 0.000000 0.000000 0.000000 0.000000 6.230729 1.228902 -0.154169 71.212455 5.683255 10.627817 179.791174 84.967680 179.978832 -3.011503 5.368768 -0.155342 0.034436 -0.499129 0.000000 0.000000 0.000000 0.000000 0.000000 0.000000 0.000000 
-9.016104 15.077832 -0.805482 -41.925068 79.610566 -14.729316 -8.676924 -1.793651 -2.486310 -14.521228 0.798901 -69.784397 -0.236870 5.081755 70.019586 3.577424 12.644004 -28.374833 -4.567200 -0.000000 -7.683100 12.034539 -1.210182 -5.987656 7.923854 -12.509435 -26.999137 -1.299881 -5.010614 72.244685 -0.028015 6.842525 8.928106 2.000700 0.000000 -68.070400 -2.998840 0.887936 11.265510 -1.516099 1.289546 -1.198965 -6.363969 1.343250 -2.057796 8.612686 -6.015663 -7.503426 -2.436243 -0.151450 -0.458274 0.000000 0.000000 0.000000 -2.648400 13.720499 2.391347 -70.298882 16.868192 7.367249 -0.053632 -89.087947 -0.016582 4.563107 3.537501 0.137615 -0.082572 0.170106 -0.000000 0.000000 0.000000 0.000000 0.000000 0.000000 0.000000 6.556649 1.494341 -0.097817 71.694576 5.406643 10.190543 179.840939 86.193336 179.979003 -2.952759 5.473395 -0.154676 0.028071 -0.493884 0.000000 0.000000 0.000000 0.000000 0.000000 0.000000 0.000000 
-8.828662 15.071190 -0.814507 -41.529703 79.529413 -14.579538 -8.770793 -1.816094 -2.614924 -14.479391 0.907101 -68.724181 -0.214033 5.060191 70.551297 3.733158 13.309787 -29.501033 -5.075100 0.000000 -8.860899 12.033670 -1.108263 -5.952523 7.775017 -11.994763 -27.774602 -1.536655 -5.117829 74.145897 -0.231503 4.828847 8.802706 1.498000 0.000000 -64.008400 -2.841059 0.870996 11.360267 -1.495191 1.268467 -1.202535 -6.445553 1.318192 -2.151017 8.389097 -5.634258 -7.346052 -2.552853 -0.161743 -0.419488 0.000000 0.000000 0.000000 -3.243920 13.200149 2.415656 -69.560508 14.869137 7.514180 -0.094669 -88.101359 -0.019576 5.135021 3.963158 0.174479 -0.096517 0.168569 -0.000000 0.000000 0.000000 0.000000 0.000000 0.000000 0.000000 6.863531 1.737690 -0.039922 72.162416 5.115134 9.702343 179.893513 87.547550 179.978067 -3.063238 5.526649 -0.161509 0.024735 -0.486924 0.000000 0.000000 0.000000 0.000000 0.000000 0.000000 0.000000 
-8.644069 15.069200 -0.825969 -41.473573 79.508890 -14.755351 -8.869587 -1.838056 -2.730432 -14.438218 1.005241 -67.623047 -0.203954 5.024165 70.940256 3.860602 13.858114 -30.494138 -5.533300 -0.000000 -9.803900 12.023399 -1.008046 -5.942470 7.715328 -11.584883 -28.681429 -1.758994 -5.240684 76.047844 -0.463296 2.444138 8.121919 0.861100 0.000000 -59.835201 -2.590648 0.842279 11.467315 -1.452861 1.235793 -1.197537 -6.517650 1.281519 -2.225443 8.131804 -5.267012 -7.182081 -2.665163 -0.171682 -0.378645 0.000000 0.000000 0.000000 -3.804305 12.673597 2.441947 -68.852591 12.773788 7.700214 -0.141561 -87.030470 -0.022805 5.704633 4.405884 0.216437 -0.110197 0.167473 0.000000 0.000000 0.000000 0.000000 0.000000 0.000000 0.000000 7.137530 1.939252 0.013705 72.608413 4.830868 9.192006 179.946424 89.024098 179.976073 -3.347996 5.528640 -0.176341 0.024472 -0.478339 0.000000 0.000000 0.000000 0.000000 0.000000 0.000000 0.000000 
-8.462014 15.071317 -0.839510 -41.731268 79.545064 -15.230490 -8.973978 -1.859311 -2.832427 -14.394634 1.099983 -66.496306 -0.204548 4.976774 71.210227 3.958781 14.283226 -31.354968 -5.930400 -0.000000 -10.426100 12.002672 -0.909439 -5.952834 7.737965 -11.275789 -29.711893 -1.964990 -5.377058 77.915912 -0.724005 -0.190774 6.919579 0.188200 0.000001 -55.482700 -2.260930 0.800939 11.579695 -1.391914 1.190814 -1.186188 -6.579266 1.232532 -2.284112 7.851520 -4.918561 -7.010862 -2.771140 -0.181151 -0.335223 0.000000 0.000000 0.000000 -4.305218 12.126693 2.468809 -68.203672 10.643594 7.897325 -0.192475 -85.921633 -0.026255 6.269080 4.854486 0.262984 -0.123279 0.167026 0.000000 0.000000 0.000000 0.000000 0.000000 0.000000 0.000000 7.377163 2.098714 0.066539 73.023977 4.547909 8.679047 -0.004055 89.397652 -0.027660 -3.805882 5.465733 -0.198072 0.027246 -0.468165 0.000000 0.000000 0.000000 0.000000 0.000000 0.000000 0.000000 
-8.282188 15.077038 -0.854658 -42.273229 79.632251 -15.972721 -9.084094 -1.879663 -2.921438 -14.348128 1.197582 -65.359733 -0.214286 4.921108 71.382317 4.029171 14.588124 -32.094634 -6.262100 0.000000 -10.707800 11.970130 -0.812807 -5.976919 7.835117 -11.053236 -30.858869 -2.151339 -5.524225 79.712878 -1.008992 -2.918838 5.252657 -0.412700 -0.000000 -50.857200 -1.869168 0.746703 11.689747 -1.315970 1.133323 -1.170386 -6.629458 1.171127 -2.328464 7.560577 -4.594404 -6.833694 -2.868875 -0.190018 -0.289348 0.000000 0.000000 0.000000 -4.717887 11.556505 2.494292 -67.638514 8.523898 8.090565 -0.245020 -84.818402 -0.029892 6.820431 5.302227 0.313423 -0.135491 0.167393 0.000000 0.000000 0.000000 0.000000 0.000000 0.000000 0.000000 7.582613 2.216162 0.121074 73.403086 4.260693 8.182729 0.041893 87.745296 -0.030638 -4.427608 5.330357 -0.224900 0.032860 -0.456576 0.000000 0.000000 0.000000 0.000000 0.000000 0.000000 0.000000 
